FILE "Mortal Kombat Trilogy (E) (v1.1) (Track 01) [SLES-02509].bin" BINARY
  TRACK 01 MODE2/2352
    INDEX 01 00:00:00
FILE "Mortal Kombat Trilogy (E) (v1.1) (Track 02) [SLES-02509].bin" BINARY
  TRACK 02 AUDIO
    INDEX 00 00:00:00
    INDEX 01 00:02:00
FILE "Mortal Kombat Trilogy (E) (v1.1) (Track 03) [SLES-02509].bin" BINARY
  TRACK 03 AUDIO
    INDEX 00 00:00:00
    INDEX 01 00:02:00
FILE "Mortal Kombat Trilogy (E) (v1.1) (Track 04) [SLES-02509].bin" BINARY
  TRACK 04 AUDIO
    INDEX 00 00:00:00
    INDEX 01 00:02:00
FILE "Mortal Kombat Trilogy (E) (v1.1) (Track 05) [SLES-02509].bin" BINARY
  TRACK 05 AUDIO
    INDEX 00 00:00:00
    INDEX 01 00:02:00
FILE "Mortal Kombat Trilogy (E) (v1.1) (Track 06) [SLES-02509].bin" BINARY
  TRACK 06 AUDIO
    INDEX 00 00:00:00
    INDEX 01 00:02:00
FILE "Mortal Kombat Trilogy (E) (v1.1) (Track 07) [SLES-02509].bin" BINARY
  TRACK 07 AUDIO
    INDEX 00 00:00:00
    INDEX 01 00:02:00
FILE "Mortal Kombat Trilogy (E) (v1.1) (Track 08) [SLES-02509].bin" BINARY
  TRACK 08 AUDIO
    INDEX 00 00:00:00
    INDEX 01 00:02:00
FILE "Mortal Kombat Trilogy (E) (v1.1) (Track 09) [SLES-02509].bin" BINARY
  TRACK 09 AUDIO
    INDEX 00 00:00:00
    INDEX 01 00:02:00
FILE "Mortal Kombat Trilogy (E) (v1.1) (Track 10) [SLES-02509].bin" BINARY
  TRACK 10 AUDIO
    INDEX 00 00:00:00
    INDEX 01 00:02:00
FILE "Mortal Kombat Trilogy (E) (v1.1) (Track 11) [SLES-02509].bin" BINARY
  TRACK 11 AUDIO
    INDEX 00 00:00:00
    INDEX 01 00:02:00
FILE "Mortal Kombat Trilogy (E) (v1.1) (Track 12) [SLES-02509].bin" BINARY
  TRACK 12 AUDIO
    INDEX 00 00:00:00
    INDEX 01 00:02:00
FILE "Mortal Kombat Trilogy (E) (v1.1) (Track 13) [SLES-02509].bin" BINARY
  TRACK 13 AUDIO
    INDEX 00 00:00:00
    INDEX 01 00:02:00
FILE "Mortal Kombat Trilogy (E) (v1.1) (Track 14) [SLES-02509].bin" BINARY
  TRACK 14 AUDIO
    INDEX 00 00:00:00
    INDEX 01 00:02:00
FILE "Mortal Kombat Trilogy (E) (v1.1) (Track 15) [SLES-02509].bin" BINARY
  TRACK 15 AUDIO
    INDEX 00 00:00:00
    INDEX 01 00:02:00
FILE "Mortal Kombat Trilogy (E) (v1.1) (Track 16) [SLES-02509].bin" BINARY
  TRACK 16 AUDIO
    INDEX 00 00:00:00
    INDEX 01 00:02:00
FILE "Mortal Kombat Trilogy (E) (v1.1) (Track 17) [SLES-02509].bin" BINARY
  TRACK 17 AUDIO
    INDEX 00 00:00:00
    INDEX 01 00:02:00
FILE "Mortal Kombat Trilogy (E) (v1.1) (Track 18) [SLES-02509].bin" BINARY
  TRACK 18 AUDIO
    INDEX 00 00:00:00
    INDEX 01 00:02:00
FILE "Mortal Kombat Trilogy (E) (v1.1) (Track 19) [SLES-02509].bin" BINARY
  TRACK 19 AUDIO
    INDEX 00 00:00:00
    INDEX 01 00:02:00
FILE "Mortal Kombat Trilogy (E) (v1.1) (Track 20) [SLES-02509].bin" BINARY
  TRACK 20 AUDIO
    INDEX 00 00:00:00
    INDEX 01 00:02:00
FILE "Mortal Kombat Trilogy (E) (v1.1) (Track 21) [SLES-02509].bin" BINARY
  TRACK 21 AUDIO
    INDEX 00 00:00:00
    INDEX 01 00:02:00
FILE "Mortal Kombat Trilogy (E) (v1.1) (Track 22) [SLES-02509].bin" BINARY
  TRACK 22 AUDIO
    INDEX 00 00:00:00
    INDEX 01 00:02:00
FILE "Mortal Kombat Trilogy (E) (v1.1) (Track 23) [SLES-02509].bin" BINARY
  TRACK 23 AUDIO
    INDEX 00 00:00:00
    INDEX 01 00:02:00
FILE "Mortal Kombat Trilogy (E) (v1.1) (Track 24) [SLES-02509].bin" BINARY
  TRACK 24 AUDIO
    INDEX 00 00:00:00
    INDEX 01 00:02:00
FILE "Mortal Kombat Trilogy (E) (v1.1) (Track 25) [SLES-02509].bin" BINARY
  TRACK 25 AUDIO
    INDEX 00 00:00:00
    INDEX 01 00:02:00
FILE "Mortal Kombat Trilogy (E) (v1.1) (Track 26) [SLES-02509].bin" BINARY
  TRACK 26 AUDIO
    INDEX 00 00:00:00
    INDEX 01 00:02:00
FILE "Mortal Kombat Trilogy (E) (v1.1) (Track 27) [SLES-02509].bin" BINARY
  TRACK 27 AUDIO
    INDEX 00 00:00:00
    INDEX 01 00:02:00
FILE "Mortal Kombat Trilogy (E) (v1.1) (Track 28) [SLES-02509].bin" BINARY
  TRACK 28 AUDIO
    INDEX 00 00:00:00
    INDEX 01 00:02:00
FILE "Mortal Kombat Trilogy (E) (v1.1) (Track 29) [SLES-02509].bin" BINARY
  TRACK 29 AUDIO
    INDEX 00 00:00:00
    INDEX 01 00:02:00
FILE "Mortal Kombat Trilogy (E) (v1.1) (Track 30) [SLES-02509].bin" BINARY
  TRACK 30 AUDIO
    INDEX 00 00:00:00
    INDEX 01 00:02:00
